<svg width="18" height="18" viewBox="0 0 18 18" fill="none" xmlns="http://www.w3.org/2000/svg">
<path d="M3.75 16.5H14.25C14.6642 16.5 15 16.1642 15 15.75V5.25H11.25V1.5H3.75C3.33579 1.5 3 1.83579 3 2.25V15.75C3 16.1642 3.33579 16.5 3.75 16.5Z" stroke="black" stroke-width="1.5" stroke-linecap="round" stroke-linejoin="round"/>
<path d="M11.25 1.5L15 5.25" stroke="black" stroke-width="1.5" stroke-linecap="round" stroke-linejoin="round"/>
<path d="M9 11.625V10.5C9.82841 10.5 10.5 9.74449 10.5 8.8125C10.5 7.88051 9.82841 7.125 9 7.125C8.17159 7.125 7.5 7.88051 7.5 8.8125" stroke="black" stroke-width="1.5" stroke-linecap="round" stroke-linejoin="round"/>
<path fill-rule="evenodd" clip-rule="evenodd" d="M9 14.625C9.51776 14.625 9.9375 14.2053 9.9375 13.6875C9.9375 13.1697 9.51776 12.75 9 12.75C8.48224 12.75 8.0625 13.1697 8.0625 13.6875C8.0625 14.2053 8.48224 14.625 9 14.625Z" fill="black"/>
</svg>
