<svg width="59" height="59" viewBox="0 0 59 59" fill="none" xmlns="http://www.w3.org/2000/svg">
<path fill-rule="evenodd" clip-rule="evenodd" d="M29.5 50.4203C32.4882 50.4203 33.7174 52.0305 35.3191 52.3885C36.9208 52.7465 38.2654 52.8459 39.6425 52.2391C42.3694 51.0375 44.0317 49.6061 46.0488 47.4684C49.7869 43.5064 51.625 38.059 51.625 30.764C51.625 23.4689 49.6578 19.6989 46.6265 17.2328C43.5951 14.7669 41.8371 14.2944 38.1716 14.7669C34.506 15.2393 32.5101 19.1778 29.5102 19.1778C26.5104 19.1778 22.8543 15.2943 19.6734 14.7669C16.4926 14.2393 14.75 14.7669 11.9963 17.2328C9.24252 19.6989 7.375 23.539 7.375 30.764C7.375 37.989 9.28211 43.3462 13.0202 47.3081C15.0373 49.446 16.6306 51.0375 19.3575 52.2391C20.7346 52.8459 22.1578 52.7465 23.7037 52.3885C25.2498 52.0305 26.479 50.4203 29.5 50.4203Z" stroke="white" stroke-width="4.91667"/>
<path d="M17.4896 31.958C17.1496 33.6121 17.1496 35.3152 17.4896 37.0672C17.8295 38.8191 18.5535 40.1711 19.6613 41.123" stroke="white" stroke-width="4.91667" stroke-linecap="round"/>
<path d="M29.5107 19.1784C30.4754 9.67081 34.5737 4.91699 41.8056 4.91699C42.4687 6.9179 42.64 8.85445 42.3195 10.7266C42.1672 11.616 41.6947 12.8843 40.9022 14.5314" stroke="white" stroke-width="4.91667" stroke-linecap="round"/>
</svg>
