<svg width="50" height="50" viewBox="0 0 50 50" fill="none" xmlns="http://www.w3.org/2000/svg">
<path d="M39.5833 4.16675H10.4167C9.26607 4.16675 8.33333 5.09949 8.33333 6.25008V43.7501C8.33333 44.9007 9.26607 45.8334 10.4167 45.8334H39.5833C40.7339 45.8334 41.6667 44.9007 41.6667 43.7501V6.25008C41.6667 5.09949 40.7339 4.16675 39.5833 4.16675Z" stroke="#76B658" stroke-width="4.16667" stroke-linecap="round" stroke-linejoin="round"/>
<path d="M35.4167 11.4583H14.5833V20.8333H35.4167V11.4583Z" stroke="#76B658" stroke-width="4.16667" stroke-linecap="round" stroke-linejoin="round"/>
<path d="M17.7083 29.1667C18.8589 29.1667 19.7917 28.2339 19.7917 27.0833C19.7917 25.9327 18.8589 25 17.7083 25C16.5577 25 15.625 25.9327 15.625 27.0833C15.625 28.2339 16.5577 29.1667 17.7083 29.1667Z" fill="#76B658"/>
<path d="M17.7083 35.4167C18.8589 35.4167 19.7917 34.4839 19.7917 33.3333C19.7917 32.1827 18.8589 31.25 17.7083 31.25C16.5577 31.25 15.625 32.1827 15.625 33.3333C15.625 34.4839 16.5577 35.4167 17.7083 35.4167Z" fill="#76B658"/>
<path d="M17.7083 41.6667C18.8589 41.6667 19.7917 40.7339 19.7917 39.5833C19.7917 38.4327 18.8589 37.5 17.7083 37.5C16.5577 37.5 15.625 38.4327 15.625 39.5833C15.625 40.7339 16.5577 41.6667 17.7083 41.6667Z" fill="#76B658"/>
<path d="M25 29.1667C26.1506 29.1667 27.0833 28.2339 27.0833 27.0833C27.0833 25.9327 26.1506 25 25 25C23.8494 25 22.9167 25.9327 22.9167 27.0833C22.9167 28.2339 23.8494 29.1667 25 29.1667Z" fill="#76B658"/>
<path d="M25 35.4167C26.1506 35.4167 27.0833 34.4839 27.0833 33.3333C27.0833 32.1827 26.1506 31.25 25 31.25C23.8494 31.25 22.9167 32.1827 22.9167 33.3333C22.9167 34.4839 23.8494 35.4167 25 35.4167Z" fill="#76B658"/>
<path d="M25 41.6667C26.1506 41.6667 27.0833 40.7339 27.0833 39.5833C27.0833 38.4327 26.1506 37.5 25 37.5C23.8494 37.5 22.9167 38.4327 22.9167 39.5833C22.9167 40.7339 23.8494 41.6667 25 41.6667Z" fill="#76B658"/>
<path d="M32.2917 29.1667C33.4423 29.1667 34.375 28.2339 34.375 27.0833C34.375 25.9327 33.4423 25 32.2917 25C31.1411 25 30.2083 25.9327 30.2083 27.0833C30.2083 28.2339 31.1411 29.1667 32.2917 29.1667Z" fill="#76B658"/>
<path d="M32.2917 35.4167C33.4423 35.4167 34.375 34.4839 34.375 33.3333C34.375 32.1827 33.4423 31.25 32.2917 31.25C31.1411 31.25 30.2083 32.1827 30.2083 33.3333C30.2083 34.4839 31.1411 35.4167 32.2917 35.4167Z" fill="#76B658"/>
<path d="M32.2917 41.6667C33.4423 41.6667 34.375 40.7339 34.375 39.5833C34.375 38.4327 33.4423 37.5 32.2917 37.5C31.1411 37.5 30.2083 38.4327 30.2083 39.5833C30.2083 40.7339 31.1411 41.6667 32.2917 41.6667Z" fill="#76B658"/>
</svg>
