<svg width="128" height="128" viewBox="0 0 128 128" fill="none" xmlns="http://www.w3.org/2000/svg">
<rect width="128" height="128" fill="white"/>
<path d="M27.932 74C20.7029 76.711 13.4736 88.4584 15.2809 94.784C16.4626 98.9201 34.6736 100.376 47.6246 99.1041C49.2181 98.9476 50.7319 98.7498 52.1246 98.5106" stroke="black" stroke-width="5.42191" stroke-linecap="round"/>
<path d="M100.193 74C107.422 76.711 114.651 88.4584 112.844 94.784C111.662 98.9201 93.451 100.376 80.5 99.1041C78.9065 98.9476 77.3927 98.7498 76 98.5106" stroke="black" stroke-width="5.42191" stroke-linecap="round"/>
<path d="M53.3108 71C45.3109 74 37.3109 87 39.3108 94C41.3108 101 87.3861 101.063 89.3109 94C91.2356 86.9369 83.3109 74 74.3109 71" stroke="black" stroke-width="6" stroke-linecap="round"/>
<path d="M50.9066 70.2208C45.8376 76.7732 36.4165 77.9757 29.8641 72.9067C23.3117 67.8376 22.1092 58.4166 27.1783 51.8642C32.2473 45.3118 41.6683 44.1093 48.2207 49.1783" stroke="black" stroke-width="6"/>
<path d="M77.1783 70.2208C82.2474 76.7732 91.6684 77.9757 98.2208 72.9067C104.773 67.8376 105.976 58.4166 100.907 51.8642C95.8377 45.3118 86.4166 44.1093 79.8642 49.1783" stroke="black" stroke-width="6"/>
<path d="M82 56.5465C82 65.5519 74.3012 73.093 64.5 73.093C54.6988 73.093 47 65.5519 47 56.5465C47 47.5412 54.6988 40 64.5 40C74.3012 40 82 47.5412 82 56.5465Z" stroke="black" stroke-width="6"/>
</svg>
