<svg width="20" height="20" viewBox="0 0 20 20" fill="none" xmlns="http://www.w3.org/2000/svg">
<path d="M5.83337 12.5C5.83337 12.5 5.83337 14.1667 5.83337 16.6667C5.83337 19.1667 9.16671 19.1667 9.16671 16.6667C9.16671 14.1667 9.16671 12.5 9.16671 12.5" stroke="black" stroke-width="1.66667" stroke-linecap="round" stroke-linejoin="round"/>
<path d="M9.16671 15.417H5.83337" stroke="black" stroke-width="1.66667" stroke-linecap="round" stroke-linejoin="round"/>
<path d="M5.83337 2.50033C5.83337 2.04009 6.20646 1.66699 6.66671 1.66699H13.5979C13.7307 1.66699 13.8614 1.69818 13.9679 1.7776C14.3924 2.09424 15.4991 3.15937 15.8334 5.83366C16.1554 8.40958 15.2631 10.9855 14.841 12.0231C14.7207 12.3189 14.4306 12.5003 14.1114 12.5003H5.83337V2.50033Z" stroke="black" stroke-width="1.66667"/>
<path d="M9.16671 4.99967C9.62694 4.99967 10 4.62658 10 4.16634C10 3.7061 9.62694 3.33301 9.16671 3.33301C8.70647 3.33301 8.33337 3.7061 8.33337 4.16634C8.33337 4.62658 8.70647 4.99967 9.16671 4.99967Z" fill="black"/>
</svg>
