<svg width="20" height="20" viewBox="0 0 20 20" fill="none" xmlns="http://www.w3.org/2000/svg">
<path d="M4.69296 18.3337L6.09458 14.8692C4.17954 13.5809 2.91663 11.3723 2.91663 8.86395C2.91663 4.8892 6.08796 1.66699 9.99996 1.66699C13.912 1.66699 17.0833 4.8892 17.0833 8.86395C17.0833 11.3723 15.8204 13.5809 13.9053 14.8692L15.307 18.3337H4.69296Z" stroke="black" stroke-width="1.66667" stroke-linejoin="round"/>
<path d="M8.33337 15.833V18.333" stroke="black" stroke-width="1.66667" stroke-linecap="round" stroke-linejoin="round"/>
<path d="M11.6666 15.833V18.333" stroke="black" stroke-width="1.66667" stroke-linecap="round" stroke-linejoin="round"/>
<path d="M7.08337 9.58301C7.77375 9.58301 8.33337 9.02338 8.33337 8.33301C8.33337 7.64263 7.77375 7.08301 7.08337 7.08301C6.393 7.08301 5.83337 7.64263 5.83337 8.33301C5.83337 9.02338 6.393 9.58301 7.08337 9.58301Z" stroke="black" stroke-width="1.66667" stroke-linejoin="round"/>
<path d="M12.9166 9.58301C13.607 9.58301 14.1666 9.02338 14.1666 8.33301C14.1666 7.64263 13.607 7.08301 12.9166 7.08301C12.2263 7.08301 11.6666 7.64263 11.6666 8.33301C11.6666 9.02338 12.2263 9.58301 12.9166 9.58301Z" stroke="black" stroke-width="1.66667" stroke-linejoin="round"/>
<path d="M13.3333 18.333H10" stroke="black" stroke-width="1.66667" stroke-linecap="round" stroke-linejoin="round"/>
<path d="M9.99996 18.333H6.66663" stroke="black" stroke-width="1.66667" stroke-linecap="round" stroke-linejoin="round"/>
</svg>
