<svg width="128" height="128" viewBox="0 0 128 128" fill="none" xmlns="http://www.w3.org/2000/svg">
<path d="M36.4278 64.9914C36.4278 64.9914 35.9872 65.095 33.9811 64.5836C26.7169 62.732 26.2333 48.2725 26.2333 48.2725C26.2333 48.2725 23.3789 51.1269 18.8933 50.3114C17.95 50.1399 16.9682 49.5053 16.1337 48.8109C14.9312 47.8102 15.335 45.9954 16.7432 45.314L26.6411 40.5247M26.6411 40.5247C26.6411 40.5247 23.9204 34.0506 26.6411 34.0003C29.2084 33.9528 32.35 39.7092 32.35 39.7092M26.6411 40.5247C28.68 39.7092 30.7189 39.7092 32.35 39.7092M32.35 39.7092H36.4278" stroke="black" stroke-width="2.44667" stroke-linecap="round"/>
<path d="M27.0489 40.1167C25.8255 43.3789 26.2333 45.8256 26.2333 48.68" stroke="black" stroke-width="2.44667" stroke-linecap="round"/>
<path d="M36.4278 64.9914C36.4278 64.9914 35.9872 65.095 33.9811 64.5836C26.7169 62.732 26.2333 48.2725 26.2333 48.2725C26.2333 48.2725 23.3789 51.1269 18.8933 50.3114C17.95 50.1399 16.9682 49.5053 16.1337 48.8109C14.9312 47.8102 15.335 45.9954 16.7432 45.314L26.6411 40.5247M26.6411 40.5247C26.6411 40.5247 23.9204 34.0506 26.6411 34.0003C29.2084 33.9528 32.35 39.7092 32.35 39.7092M26.6411 40.5247C28.68 39.7092 30.7189 39.7092 32.35 39.7092M32.35 39.7092H36.4278" stroke="black" stroke-width="2.44667" stroke-linecap="round"/>
<path d="M27.0489 40.1167C25.8255 43.3789 26.2333 45.8256 26.2333 48.68" stroke="black" stroke-width="2.44667" stroke-linecap="round"/>
<path d="M30.7189 48.68L33.1655 50.3111" stroke="black" stroke-width="2.44667" stroke-linecap="round"/>
<path d="M36.8355 64.9914C36.8355 64.9914 37.2761 65.095 39.2822 64.5836C46.5464 62.732 47.03 48.2725 47.03 48.2725C47.03 48.2725 49.8844 51.1269 54.37 50.3114C55.3133 50.1399 56.2951 49.5053 57.1296 48.8109C58.3321 47.8102 57.9283 45.9954 56.5201 45.314L46.6222 40.5247M46.6222 40.5247C46.6222 40.5247 49.343 34.0506 46.6222 34.0003C44.0549 33.9528 40.9133 39.7092 40.9133 39.7092M46.6222 40.5247C44.5833 39.7092 42.5444 39.7092 40.9133 39.7092M40.9133 39.7092H36.8355" stroke="black" stroke-width="2.44667" stroke-linecap="round"/>
<path d="M46.2144 40.1167C47.4377 43.3789 47.0299 45.8256 47.0299 48.68" stroke="black" stroke-width="2.44667" stroke-linecap="round"/>
<path d="M46.2144 40.1167C47.4377 43.3789 47.0299 45.8256 47.0299 48.68" stroke="black" stroke-width="2.44667" stroke-linecap="round"/>
<path d="M42.5444 48.68L40.0978 50.3111" stroke="black" stroke-width="2.44667" stroke-linecap="round"/>
<path d="M36 65.5L39.5 74M48.5 108H46C44.3431 108 43 106.657 43 105V81L39.5 74M48.5 108V84C46 83 44.5 82.5 43 80.5C41.5 78.5 39.5 74 39.5 74M48.5 108H53C54.6569 108 56 106.657 56 105V87C56 85.3431 57.3431 84 59 84H92.0683C93.2447 84 94.3125 84.6876 94.7994 85.7586L99 95V108H105.5V88.5L103 81C103 81 104.56 71.3487 103 65.5C101 58 97.3618 56.3215 95 55.5C83.5 51.5 64 58.5 57 56.5C49.8114 54.4461 47.5 50.5 47.5 50.5" stroke="black" stroke-width="3" stroke-linecap="round"/>
<path d="M98 57C98 57 104.027 59.7692 106 59.5C108.523 59.1559 110 56 110 56C110 56 112.069 60.6466 110.5 63C108.5 66 102.5 63.5 102.5 63.5" stroke="black" stroke-width="3" stroke-linecap="round"/>
</svg>
