<svg width="59" height="59" viewBox="0 0 59 59" fill="none" xmlns="http://www.w3.org/2000/svg">
<path d="M46.7082 4.9165H12.2915C10.9338 4.9165 9.83319 6.01714 9.83319 7.37484V51.6248C9.83319 52.9825 10.9338 54.0832 12.2915 54.0832H46.7082C48.0659 54.0832 49.1665 52.9825 49.1665 51.6248V7.37484C49.1665 6.01714 48.0659 4.9165 46.7082 4.9165Z" stroke="white" stroke-width="4.91667" stroke-linejoin="round"/>
<path d="M25.8125 17.2085H40.5625" stroke="white" stroke-width="4.91667" stroke-linecap="round" stroke-linejoin="round"/>
<path d="M25.8125 29.5H40.5625" stroke="white" stroke-width="4.91667" stroke-linecap="round" stroke-linejoin="round"/>
<path d="M25.8125 41.7915H40.5625" stroke="white" stroke-width="4.91667" stroke-linecap="round" stroke-linejoin="round"/>
<path fill-rule="evenodd" clip-rule="evenodd" d="M18.4376 19.6667C19.7954 19.6667 20.896 18.5661 20.896 17.2083C20.896 15.8506 19.7954 14.75 18.4376 14.75C17.0799 14.75 15.9793 15.8506 15.9793 17.2083C15.9793 18.5661 17.0799 19.6667 18.4376 19.6667Z" fill="white"/>
<path fill-rule="evenodd" clip-rule="evenodd" d="M18.4376 31.9582C19.7954 31.9582 20.896 30.8576 20.896 29.4998C20.896 28.1421 19.7954 27.0415 18.4376 27.0415C17.0799 27.0415 15.9793 28.1421 15.9793 29.4998C15.9793 30.8576 17.0799 31.9582 18.4376 31.9582Z" fill="white"/>
<path fill-rule="evenodd" clip-rule="evenodd" d="M18.4376 44.2502C19.7954 44.2502 20.896 43.1496 20.896 41.7918C20.896 40.4341 19.7954 39.3335 18.4376 39.3335C17.0799 39.3335 15.9793 40.4341 15.9793 41.7918C15.9793 43.1496 17.0799 44.2502 18.4376 44.2502Z" fill="white"/>
</svg>
