<svg width="17" height="17" viewBox="0 0 17 17" fill="none" xmlns="http://www.w3.org/2000/svg">
<path d="M5.3586 2.36105V8.33179C5.3586 8.45287 5.4267 8.52855 5.56292 8.55882C6.3348 8.66476 7.02344 8.71774 7.62884 8.71774C8.96072 8.71774 9.98233 8.43017 10.6937 7.85504C11.405 7.26478 11.7607 6.42479 11.7607 5.33507C11.7607 4.24536 11.4126 3.4205 10.7164 2.86051C10.0202 2.28538 8.99099 1.99781 7.62884 1.99781C6.90236 1.99781 6.21372 2.04322 5.56292 2.13403C5.4267 2.1643 5.3586 2.23997 5.3586 2.36105ZM4.99536 16.4366C4.7532 16.6787 4.45807 16.7998 4.10996 16.7998C3.76186 16.7998 3.46673 16.6787 3.22457 16.4366C2.98241 16.1944 2.86133 15.8993 2.86133 15.5512V1.63457C2.86133 1.27134 2.98241 0.945934 3.22457 0.65837C3.46673 0.370806 3.76943 0.211889 4.13266 0.181619C5.41914 0.0605395 6.6602 0 7.85587 0C9.94449 0 11.5261 0.446481 12.6007 1.33944C13.6753 2.21727 14.2125 3.47347 14.2125 5.10805C14.2125 8.81611 12.0937 10.6701 7.85587 10.6701C6.9629 10.6701 6.19102 10.6399 5.54022 10.5793C5.41914 10.5793 5.3586 10.6399 5.3586 10.761V15.5512C5.3586 15.8993 5.23752 16.1944 4.99536 16.4366Z" fill="black"/>
<path d="M1 4.31348L15.7566 4.31348" stroke="black" stroke-width="1.05945" stroke-linecap="round"/>
<path d="M1 6.58398L15.7566 6.58398" stroke="black" stroke-width="1.05945" stroke-linecap="round"/>
</svg>
