<svg width="27" height="27" viewBox="0 0 27 27" fill="none" xmlns="http://www.w3.org/2000/svg">
<path fill-rule="evenodd" clip-rule="evenodd" d="M13.5 24.75C19.7132 24.75 24.75 19.7132 24.75 13.5C24.75 7.28679 19.7132 2.25 13.5 2.25C7.28679 2.25 2.24999 7.28679 2.24999 13.5C2.24999 19.7132 7.28679 24.75 13.5 24.75Z" stroke="#DFF2B6" stroke-width="2" stroke-linecap="round" stroke-linejoin="round"/>
<path d="M13.5 12.9375C15.0533 12.9375 16.3125 11.6783 16.3125 10.125C16.3125 8.57171 15.0533 7.3125 13.5 7.3125C11.9467 7.3125 10.6875 8.57171 10.6875 10.125C10.6875 11.6783 11.9467 12.9375 13.5 12.9375Z" stroke="#DFF2B6" stroke-width="2" stroke-linejoin="round"/>
<path d="M5.63738 21.5617C5.83071 18.6303 8.26966 16.3125 11.25 16.3125H15.75C18.7264 16.3125 21.1629 18.6242 21.3619 21.5501" stroke="#DFF2B6" stroke-width="2" stroke-linecap="round" stroke-linejoin="round"/>
</svg>
