<svg width="128" height="128" viewBox="0 0 128 128" fill="none" xmlns="http://www.w3.org/2000/svg">
<path d="M39.7953 80.2048C31.1929 80.2048 24.229 79.759 24.229 66.8313C24.229 57.9681 31.877 51.2289 39.7953 51.2289" stroke="black" stroke-width="3" stroke-linecap="round"/>
<path d="M39.7952 80.2048C35.4967 80.2048 32.0121 77.6102 32.0121 74.4096C32.0121 71.209 35.4967 68.6144 39.7952 68.6144" stroke="black" stroke-width="3" stroke-linecap="round"/>
<circle cx="37.6084" cy="74.5723" r="1.5" fill="black"/>
<path d="M28.121 58.0053C22.4854 56.8554 22.4855 50.3392 23.5421 48.806C24.5987 47.2728 31.291 48.0394 33.0521 53.4056" stroke="black" stroke-width="3"/>
<circle cx="31.8734" cy="64.765" r="1.5" fill="black"/>
<path d="M40.2047 80.2048C48.8071 80.2048 55.771 79.759 55.771 66.8313C55.771 57.9681 48.123 51.2289 40.2047 51.2289" stroke="black" stroke-width="3" stroke-linecap="round"/>
<path d="M40.2048 80.2048C44.5033 80.2048 47.9879 77.6102 47.9879 74.4096C47.9879 71.209 44.5033 68.6144 40.2048 68.6144" stroke="black" stroke-width="3" stroke-linecap="round"/>
<circle cx="1.5" cy="1.5" r="1.5" transform="matrix(-1 0 0 1 43.8916 73.0723)" fill="black"/>
<path d="M51.879 58.0053C57.5146 56.8554 57.5145 50.3392 56.4579 48.806C55.4013 47.2728 48.709 48.0394 46.9479 53.4056" stroke="black" stroke-width="3"/>
<circle cx="1.5" cy="1.5" r="1.5" transform="matrix(-1 0 0 1 49.6266 63.265)" fill="black"/>
<path d="M31 80.1084C35 84.6084 35.027 84.1238 38.5 86.1084C39.6538 86.7678 40.7032 87.2097 41.5902 87.506C43.155 88.0287 44.5 89.4405 44.5 91.0902V97.1084V101.608C44.5 103.265 45.8431 104.608 47.5 104.608H48.3923C49.3965 104.608 50.3348 104.107 50.8604 103.252C51.8063 101.712 53.2864 99.1485 54 97.1084C54.867 94.6302 55.234 91.8529 55.3886 90.0476C55.4896 88.869 56.2037 87.8069 57.2061 87.1788C59.0991 85.9926 62.0166 83.6591 63 80.1084" stroke="black" stroke-width="3" stroke-linecap="round"/>
<path d="M83.5 87.1084V97.1084V101.608C83.5 103.265 84.8431 104.608 86.5 104.608H87.3923C88.3965 104.608 89.3348 104.107 89.8604 103.252C90.8063 101.712 92.2864 99.1485 93 97.1084C94.4316 93.0161 94.5 88.1084 94.5 88.1084" stroke="black" stroke-width="3" stroke-linecap="round"/>
<path d="M39.5 87.1084L41 97.1084V101.608C41 103.265 42.3431 104.608 44 104.608H49" stroke="black" stroke-width="3" stroke-linecap="round"/>
<path d="M78.5 88.1084L80 97.1084V101.608C80 103.265 81.3431 104.608 83 104.608H88" stroke="black" stroke-width="3" stroke-linecap="round"/>
<path d="M41.5 51C41.5 51 46.304 47.5068 55 45.5C61.4999 44 70.4335 43.4324 77.0001 44.5717C84.0557 45.7959 91.9259 49.1825 96.0001 55.0717C99.1812 59.67 101.064 64.0166 101.5 69.1084C101.936 74.2003 101.195 77.494 99.0001 82.0717C97.8002 84.5741 94.5001 88.5717 94.5001 88.5717" stroke="black" stroke-width="3" stroke-linecap="round"/>
<path d="M57 89.1084C57 89.1084 61.9915 90.3945 65.5 90.1084C68.4771 89.8657 71.5835 89.7535 74.5 89.1084C78.4305 88.2391 83.5 86.6084 83.5 86.6084" stroke="black" stroke-width="3" stroke-linecap="round"/>
<path d="M98.5 58.1084C98.5 58.1084 102.374 57.9956 104.5 56.6084C106.778 55.1222 108 52.6084 106.5 50.1084C105.475 48.4009 103.408 47.2004 102 48.6084C100.592 50.0165 100.839 52.4906 102 54.1084C103.48 56.1707 107.23 56.7436 109.5 55.6084C111.5 54.6084 112.5 53.6084 113 51.6084" stroke="black" stroke-width="3" stroke-linecap="round"/>
</svg>
